# xmcd CD database file
#
# Track frame offsets:
#	150
#	20453
#	37811
#	57457
#	63837
#	91167
#	118964
#	149681
#
# Disc length: 2237 seconds
#
# Revision: 0
# Processed by: cddbd v1.5.2PL0 Copyright (c) Steve Scherf et al.
# Submitted via: CDex 1.51
#
DISCID=6c08bb08
DTITLE=Blueside - days work
DYEAR=2009
DGENRE=Blues
TTITLE0=jukejoint at Rory's
TTITLE1=change!
TTITLE2=cry baby
TTITLE3=waiting on a railroad crossing
TTITLE4=big city blues
TTITLE5=whole lotta trouble 
TTITLE6=days work
TTITLE7=floating
EXTD=YEAR: 2009
EXTT0=
EXTT1=
EXTT2=
EXTT3=
EXTT4=
EXTT5=
EXTT6=
EXTT7=
PLAYORDER=
